								<svg xmlns="http://www.w3.org/2000/svg" width="18" height="14" viewBox="0 0 18 14" fill="none">
									  <path d="M1.80001 0C1.20517 0 0.72001 0.47168 0.72001 1.05V5.88438C1.18688 5.49062 1.77751 5.17207 2.52001 4.92188V3.5C2.52001 2.56895 4.15547 2.45 5.58 2.45C7.00453 2.45 8.64 2.56895 8.64 3.5V4.2C8.76094 4.19863 8.87625 4.2 9 4.2C9.12375 4.2 9.23906 4.19863 9.36 4.2V3.5C9.36 2.56895 10.9955 2.45 12.42 2.45C13.8445 2.45 15.48 2.56895 15.48 3.5V4.91094C16.2211 5.15977 16.8089 5.48516 17.28 5.88438V1.05C17.28 0.47168 16.7948 0 16.2 0H1.80001ZM9 4.9C2.12626 4.9 -0.0056139 6.13594 1.1096e-05 9.45H18C18.0056 6.11406 15.8737 4.9 9 4.9ZM1.1096e-05 10.15V14H2.52001V12.6C2.52001 12.0969 2.72251 11.9 3.24001 11.9H14.76C15.2775 11.9 15.48 12.0969 15.48 12.6V14H18V10.15H1.1096e-05Z" fill="white"/>
									</svg>	