<svg xmlns="http://www.w3.org/2000/svg" width="78" height="78" viewBox="0 0 78 78" fill="none">
  <path d="M42.7845 45.8502L42.4345 45.5598L42.1123 45.8806L38.6733 49.3056C37.6641 50.3107 37.1479 51.0919 37.1425 51.8366C37.1397 52.2248 37.2759 52.5487 37.457 52.827C37.6262 53.0868 37.8533 53.3333 38.0656 53.5638L38.0819 53.5815C38.0819 53.5815 38.0819 53.5815 38.0819 53.5816C38.4583 53.9904 38.8502 54.4187 39.1525 55.0212L39.1702 55.0564L39.1926 55.0876L39.1927 55.0878L39.1929 55.0881L39.193 55.0883L39.1931 55.0884L39.1969 55.0938C39.2007 55.0993 39.2071 55.1086 39.2157 55.1214C39.2329 55.1471 39.2592 55.1871 39.2923 55.2404C39.3587 55.3472 39.4525 55.5068 39.5574 55.7117C39.7678 56.1224 40.0201 56.709 40.1878 57.4105C40.5212 58.8051 40.5208 60.6424 39.1966 62.4918C38.3901 63.5605 36.858 64.8377 34.9067 65.2078C32.9887 65.5716 30.5705 65.0772 27.9162 62.4338L27.5634 62.0824L27.2106 62.4338L26.0643 63.5753L25.7349 63.9034L26.0376 64.2552L26.0377 64.2553L26.0379 64.2555L26.0382 64.2558L26.0383 64.256L26.0432 64.2618C26.048 64.2676 26.0559 64.2771 26.0665 64.2901C26.0876 64.3163 26.1197 64.3567 26.1603 64.4105C26.2417 64.5182 26.3569 64.6788 26.4876 64.8845C26.7498 65.2972 27.0696 65.8846 27.3042 66.5855C27.7704 67.9785 27.897 69.7952 26.5873 71.6247C25.795 72.6743 24.3258 73.7388 22.5977 74.0698C20.8971 74.3955 18.9152 74.0183 17.0265 72.1374L16.6737 71.786L16.3209 72.1374L12.3089 76.133C11.0586 77.3782 9.6944 77.6277 8.47931 77.4481C7.24888 77.2662 6.16557 76.6401 5.54988 76.1191L2.12504 72.708L1.7722 73.0623L2.12503 72.708C0.635761 71.2248 0.352233 69.7225 0.560537 68.4482C0.773966 67.1425 1.513 66.035 2.12503 65.4254L31.9284 35.7441L32.2114 35.4623L31.9993 35.1243L31.9992 35.1242L31.9991 35.124L31.9983 35.1228L31.9935 35.1149L31.9721 35.0797C31.9529 35.0477 31.9239 34.9986 31.8866 34.9332C31.8118 34.8025 31.7036 34.6065 31.5731 34.3508C31.312 33.8393 30.9619 33.09 30.6114 32.1474C29.9096 30.2603 29.2099 27.6091 29.2099 24.5444C29.2099 11.267 40.0179 0.5 53.3547 0.5C66.6919 0.5 77.5 11.267 77.5 24.5444C77.5 37.8218 66.6919 48.5889 53.3547 48.5889C52.1431 48.5889 50.1427 48.4489 48.1116 48.0285C46.0658 47.6049 44.0634 46.9115 42.7845 45.8502ZM53.3559 33.6067C58.378 33.6067 62.4527 29.5515 62.4527 24.5448C62.4527 19.5381 58.378 15.4828 53.3559 15.4828C48.3334 15.4828 44.2587 19.538 44.2587 24.5448C44.2587 29.5515 48.3334 33.6067 53.3559 33.6067Z" stroke="white"/>
</svg>