<svg xmlns="http://www.w3.org/2000/svg" width="78" height="78" viewBox="0 0 78 78" fill="none">
  <path d="M18.2882 0.815936L18.2216 0.320394L18.2882 0.815935C20.6331 0.500655 23.5739 0.499814 27.0432 0.50001H50.9566C54.4261 0.499814 57.3667 0.500655 59.7118 0.815936C62.2132 1.15224 64.5406 1.90129 66.4195 3.78039L66.7731 3.42686L66.4195 3.78042C68.2988 5.65959 69.0477 7.98687 69.3843 10.4882C69.6994 12.8331 69.7004 15.7739 69.7 19.2432V70.2V70.7H70.2H74.1C75.9778 70.7 77.5 72.2222 77.5 74.1C77.5 75.9778 75.9778 77.5 74.1 77.5H3.9C2.02224 77.5 0.5 75.9778 0.5 74.1C0.5 72.2222 2.02224 70.7 3.9 70.7H7.8H8.3V70.2V19.2433C8.2998 15.7739 8.30061 12.8332 8.61589 10.4883L8.12035 10.4216L8.61589 10.4883C8.95218 7.98688 9.70127 5.65959 11.5804 3.78041C13.4595 1.90128 15.7868 1.15223 18.2882 0.815936ZM31.2 27.8C33.6301 27.8 35.6 25.83 35.6 23.4C35.6 20.97 33.6301 19 31.2 19H27.3C24.87 19 22.9 20.97 22.9 23.4C22.9 25.83 24.87 27.8 27.3 27.8H31.2ZM31.2 43.4C33.6301 43.4 35.6 41.4301 35.6 39C35.6 36.5699 33.6301 34.6 31.2 34.6H27.3C24.87 34.6 22.9 36.5699 22.9 39C22.9 41.4301 24.87 43.4 27.3 43.4H31.2ZM31.2 59C33.6301 59 35.6 57.0301 35.6 54.6C35.6 52.1699 33.6301 50.2 31.2 50.2H27.3C24.87 50.2 22.9 52.1699 22.9 54.6C22.9 57.0301 24.87 59 27.3 59H31.2ZM50.7 27.8C53.1301 27.8 55.1 25.83 55.1 23.4C55.1 20.97 53.1301 19 50.7 19H46.8C44.3699 19 42.4 20.97 42.4 23.4C42.4 25.83 44.3699 27.8 46.8 27.8H50.7ZM50.7 43.4C53.1301 43.4 55.1 41.4301 55.1 39C55.1 36.5699 53.1301 34.6 50.7 34.6H46.8C44.3699 34.6 42.4 36.5699 42.4 39C42.4 41.4301 44.3699 43.4 46.8 43.4H50.7ZM50.7 59C53.1301 59 55.1 57.0301 55.1 54.6C55.1 52.1699 53.1301 50.2 50.7 50.2H46.8C44.3699 50.2 42.4 52.1699 42.4 54.6C42.4 57.0301 44.3699 59 46.8 59H50.7Z" stroke="white"/>
</svg>