<svg width="137" height="37" viewBox="0 0 137 37" fill="none" xmlns="http://www.w3.org/2000/svg">
<g id="Camada_1" clip-path="url(#clip0_39_723)">
<g id="Group">
<path id="Vector" d="M40.6498 23.1662C38.1102 18.35 30.2373 4.23364 29.7995 3.45038C27.1634 -1.26776 20.7976 -1.00047 18.2758 3.35481C17.8356 4.11457 0 36.6216 0 36.6216L15.7065 36.6678C18.514 36.6759 18.2911 36.5762 24.5933 25.3191C27.8104 19.5715 36.0647 16.3793 40.6498 23.1654" fill="#3CB4E5"/>
<path id="Vector_2" d="M40.6498 23.1663C40.5066 22.9541 40.3594 22.7516 40.2089 22.558C35.553 16.582 27.7091 19.7523 24.5934 25.3193C24.4131 25.64 24.2393 25.9502 24.0703 26.254L29.0054 35.0723C29.7988 36.5513 30.4643 37.4374 32.9885 35.9811C36.8695 33.739 43.5652 28.4255 40.6498 23.1663Z" fill="#0071CE"/>
</g>
<g id="Group_2">
<path id="Vector_3" d="M101.884 9.14148C99.1311 6.66779 95.0369 5.46497 89.368 5.46497C87.0473 5.46497 83.9718 5.52409 82.3255 5.68528C80.5632 5.81812 79.324 6.98125 79.1317 8.62876V33.2466C79.1317 35.265 80.2888 36.5748 82.2941 36.753C83.1301 36.8469 87.3563 37 88.1594 37C92.0508 37 95.3596 36.4589 97.9933 35.3922C100.743 34.2777 102.836 32.5046 104.216 30.12C105.565 27.7889 106.249 24.7693 106.249 21.1462C106.249 15.7841 104.781 11.7448 101.885 9.14148M89.7711 29.3505C89.2328 29.3505 88.7098 29.3408 88.2165 29.323C88.103 29.3189 87.9888 29.3141 87.8737 29.3076V13.0019C88.0218 12.9857 88.173 12.9703 88.3267 12.9557C88.8715 12.9079 89.3704 12.8836 89.8089 12.8836C91.5374 12.8836 92.9834 13.1622 94.1083 13.7114C95.1552 14.2225 95.9245 15.0244 96.4612 16.1608C97.0357 17.379 97.3262 19.05 97.3262 21.126C97.3262 23.202 97.0406 24.8989 96.4765 26.1195C95.9543 27.2478 95.193 28.0384 94.1486 28.5357C93.0156 29.0751 91.543 29.3489 89.7711 29.3489" fill="#0071CE"/>
<path id="Vector_4" d="M128.538 21.6727L119.42 7.56276C118.577 6.16392 117.815 5.59532 116.543 5.47868L116.506 5.45276H109.783V36.7958H115.921C117.296 36.7958 118.257 35.8368 118.257 34.4453L118.246 20.5808L127.471 34.8786C128.214 36.0353 128.815 36.7513 130.764 36.7926L137 36.7958V5.45276H130.869C129.494 5.45276 128.534 6.41178 128.534 7.80252L128.538 21.6727Z" fill="#0071CE"/>
<path id="Vector_5" d="M44.5057 36.6655H51.2714C53.1681 36.6655 53.8512 36.1463 54.5915 34.1391L55.8283 30.1435H64.3418L65.5721 34.1391C66.3124 36.1463 66.9956 36.6655 68.893 36.6655H75.7537L66.2279 7.27118C65.8916 6.19067 64.9115 5.46411 63.7898 5.46411H56.3916C55.2699 5.46411 54.2898 6.18743 53.9534 7.2647L44.5065 36.6655H44.5057ZM57.4449 23.8345L60.0834 13.8167L62.7236 23.8345H57.4449Z" fill="#0071CE"/>
</g>
</g>
<defs>
<clipPath id="clip0_39_723">
<rect width="137" height="37" fill="white"/>
</clipPath>
</defs>
</svg>
