<svg xmlns="http://www.w3.org/2000/svg" width="189" height="53" viewBox="0 0 189 53" fill="none">
  <g clip-path="url(#clip0_194_212)">
    <mask id="mask0_194_212" style="mask-type:luminance" maskUnits="userSpaceOnUse" x="0" y="0" width="189" height="53">
      <path d="M189 0H0V53H189V0Z" fill="white"/>
    </mask>
    <g mask="url(#mask0_194_212)">
      <path d="M39.1562 49.6253C40.3087 51.7353 41.2744 53.0002 44.9131 50.9061C50.4886 47.696 60.0816 40.1169 55.968 32.6389L41.3277 6.47374C37.673 0.000217557 28.843 0.366944 25.3483 6.34619C24.7348 7.3879 0 52.0063 0 52.0063L21.7843 52.0701C25.487 52.0807 25.391 51.9585 32.8712 38.6872L39.1616 49.6253H39.1562ZM35.795 36.9812C35.795 36.9812 39.2523 29.9496 45.9055 30.3694C46.9726 30.4385 48.0023 30.7627 48.936 31.2889C51.0808 32.4954 54.6608 35.3495 52.1212 40.0532C52.1212 40.0532 50.766 43.0773 45.7934 46.1919C45.5373 46.3513 45.2813 46.5161 45.0305 46.6861C44.2835 47.191 42.1921 48.3763 41.2851 46.4895L35.795 36.9812Z" fill="white"/>
      <path d="M140.518 14.3824C136.719 11.0022 131.063 9.35986 123.236 9.35986C120.035 9.35986 115.788 9.43959 113.515 9.66281C111.082 9.84352 109.37 11.4327 109.103 13.6862V47.3187C109.103 50.0772 110.698 51.863 113.467 52.1075C114.625 52.235 120.457 52.4476 121.566 52.4476C126.939 52.4476 131.506 51.7088 135.145 50.2526C138.938 48.7272 141.83 46.3089 143.735 43.0509C145.597 39.8673 146.541 35.7376 146.541 30.7895C146.541 23.4656 144.514 17.9434 140.518 14.3877M123.797 41.9986C123.055 41.9986 122.329 41.9879 121.652 41.9613C121.497 41.956 121.337 41.9507 121.177 41.9401V19.6601C121.38 19.6388 121.593 19.6176 121.801 19.5963C122.553 19.5325 123.242 19.5007 123.85 19.5007C126.235 19.5007 128.23 19.8833 129.783 20.6327C131.229 21.3343 132.29 22.4292 133.032 23.9811C133.827 25.6447 134.227 27.9301 134.227 30.7629C134.227 33.5957 133.832 35.9183 133.053 37.5872C132.333 39.1285 131.282 40.2074 129.841 40.8877C128.278 41.6265 126.245 41.9986 123.797 41.9986Z" fill="white"/>
      <path d="M177.316 31.5014L164.729 12.2244C163.566 10.311 162.515 9.53503 160.755 9.37558L160.707 9.33838H151.428V52.1604H159.901C161.8 52.1604 163.129 50.8529 163.129 48.9502L163.113 30.008L175.848 49.5401C176.873 51.1187 177.705 52.0966 180.394 52.1551H189.005V9.33838H180.543C178.644 9.33838 177.321 10.6458 177.321 12.5486V31.4961L177.316 31.5014Z" fill="white"/>
      <path d="M61.3033 51.9852H70.6456C73.2652 51.9852 74.2096 51.273 75.2286 48.5359L76.936 43.0775H88.6898L90.3864 48.5359C91.4108 51.2783 92.3498 51.9852 94.9695 51.9852H104.44L91.2881 11.826C90.8239 10.3484 89.4687 9.35986 87.9215 9.35986H77.7096C76.1623 9.35986 74.8072 10.3484 74.343 11.8207L61.3033 51.9905V51.9852ZM79.1662 34.4567L82.8102 20.7709L86.4543 34.4567H79.1662Z" fill="white"/>
    </g>
  </g>
  <defs>
    <clipPath id="clip0_194_212">
      <rect width="189" height="53" fill="white"/>
    </clipPath>
  </defs>
</svg>