									<svg xmlns="http://www.w3.org/2000/svg" width="19" height="18" viewBox="0 0 19 18" fill="none">
									  <g clip-path="url(#clip0_113_124)">
									    <path d="M13.5433 4.24963H0.944896C0.422952 4.24963 0 4.65025 0 5.14476V17.0801C0 17.5746 0.422952 17.9753 0.944896 17.9753H13.5433C14.0652 17.9753 14.4882 17.5746 14.4882 17.0801V5.14476C14.4882 4.65025 14.0652 4.24963 13.5433 4.24963ZM12.5984 16.1849H1.88975V6.03989H12.5984V16.1849Z" fill="white"/>
									    <path d="M18.8127 15.084H17.7879V4.63712H18.8127C18.8884 4.63712 18.9567 4.59398 18.9856 4.52759C19.0148 4.46116 18.9988 4.38507 18.945 4.33413L17.2905 2.76674C17.2173 2.69738 17.0986 2.69738 17.0254 2.76674L15.3709 4.33413C15.3171 4.3851 15.3011 4.46116 15.3303 4.52759C15.3593 4.59398 15.4276 4.63712 15.5032 4.63712H16.5281V15.084H15.5032C15.4276 15.084 15.3593 15.1271 15.3303 15.1936C15.3012 15.26 15.3171 15.3361 15.3709 15.3871L17.0254 16.9545C17.0986 17.0239 17.2173 17.0239 17.2905 16.9545L18.945 15.3871C18.9988 15.3361 19.0148 15.2601 18.9856 15.1936C18.9567 15.1271 18.8884 15.084 18.8127 15.084Z" fill="white"/>
									    <path d="M2.73192 3.46285C2.78572 3.51383 2.86601 3.52899 2.93617 3.5013C3.00628 3.47395 3.05182 3.40924 3.05182 3.33754V2.36664H14.0791V3.33754C14.0791 3.40924 14.1246 3.47395 14.1947 3.5013C14.2649 3.52899 14.3451 3.51383 14.399 3.46285L16.0535 1.89546C16.1267 1.82607 16.1267 1.71357 16.0535 1.64425L14.399 0.0768989C14.3451 0.0258879 14.2649 0.0107274 14.1947 0.0384117C14.1246 0.0658032 14.0791 0.130473 14.0791 0.202174V1.17314H3.05182V0.202174C3.05182 0.13051 3.00632 0.0658032 2.93617 0.0384117C2.86605 0.0107274 2.78572 0.0258879 2.73192 0.0768989L1.07749 1.64425C1.00428 1.71357 1.00428 1.82607 1.07749 1.89546L2.73192 3.46285Z" fill="white"/>
									  </g>
									  <defs>
									    <clipPath id="clip0_113_124">
									      <rect width="19" height="18" fill="white"/>
									    </clipPath>
									  </defs>
									</svg>	