<svg xmlns="http://www.w3.org/2000/svg" width="106" height="106" viewBox="0 0 106 106" fill="none">
  <path d="M45.1413 83.8787C45.1399 85.3869 45.4605 86.8748 46.0778 88.244H15.9011C14.16 88.2399 12.4913 87.5464 11.2602 86.3152C10.0291 85.0842 9.33568 83.4158 9.33142 81.6749V71.0762C9.34448 66.5266 11.1576 62.1672 14.3746 58.9501C17.5915 55.7332 21.9507 53.9202 26.5 53.907C26.5005 53.907 26.5009 53.907 26.5014 53.907L56.693 53.907C57.282 55.7393 58.1573 57.4658 59.2855 59.0228C55.4245 59.8677 51.9407 61.9631 49.3821 64.9953C46.6482 68.2352 45.1463 72.3365 45.1413 76.5757V76.5763V83.8787ZM45.1413 83.8787L45.6413 83.8792H45.1413V83.8787ZM42.3999 47.607C38.9282 47.607 35.5344 46.5775 32.6478 44.6487C29.7611 42.7199 27.5112 39.9784 26.1826 36.7709C24.8541 33.5634 24.5065 30.034 25.1838 26.629C25.8611 23.2239 27.5329 20.0962 29.9878 17.6413C32.4427 15.1864 35.5704 13.5146 38.9754 12.8373C42.3805 12.16 45.9099 12.5076 49.1174 13.8362C52.3248 15.1648 55.0663 17.4146 56.9951 20.3013C58.9239 23.1879 59.9534 26.5817 59.9534 30.0535C59.9534 34.709 58.104 39.1737 54.8121 42.4657C51.5202 45.7576 47.0554 47.607 42.3999 47.607ZM96.6685 83.8775C96.6685 83.8776 96.6685 83.8777 96.6685 83.8778C96.6644 85.0346 96.2031 86.1428 95.3851 86.9607C94.5671 87.7787 93.4588 88.2401 92.3019 88.244H55.8079C54.651 88.2401 53.5426 87.7787 52.7246 86.9607C51.9068 86.1429 51.4455 85.035 51.4413 83.8785C51.4413 83.8782 51.4413 83.8778 51.4413 83.8775V76.5779C51.4413 76.5775 51.4413 76.5771 51.4413 76.5767C51.4515 73.4868 52.6835 70.5263 54.8684 68.3413C57.0534 66.1564 60.0139 64.9244 63.1038 64.9142C63.1042 64.9142 63.1046 64.9142 63.105 64.9142H84.9992C84.9996 64.9142 85 64.9142 85.0004 64.9142C88.0903 64.9244 91.0508 66.1564 93.2358 68.3413C95.421 70.5266 96.653 73.4876 96.6629 76.5779L96.6685 83.8775ZM85.9848 48.3301C85.9848 50.6896 85.2851 52.9961 83.9742 54.958C82.6634 56.9199 80.8002 58.449 78.6203 59.3519C76.4404 60.2548 74.0416 60.4911 71.7275 60.0308C69.4133 59.5705 67.2876 58.4342 65.6192 56.7658C63.9508 55.0974 62.8145 52.9717 62.3542 50.6575C61.8939 48.3433 62.1302 45.9446 63.0331 43.7647C63.936 41.5848 65.4651 39.7216 67.427 38.4108C69.3889 37.0999 71.6954 36.4002 74.0549 36.4002C77.2189 36.4002 80.2533 37.6571 82.4906 39.8944C84.7279 42.1317 85.9848 45.1661 85.9848 48.3301Z" stroke="white"/>
</svg>