								<svg xmlns="http://www.w3.org/2000/svg" width="23" height="22" viewBox="0 0 23 22" fill="none">
									  <path d="M4.02506 16.5668C4.02506 16.5668 3.93215 17.2593 4.02506 17.5882C4.0896 17.8165 4.15156 18.2011 4.39881 18.2011H5.787C6.03425 18.2011 6.09621 17.8165 6.16075 17.5882C6.25366 17.2595 6.16075 16.5668 6.16075 16.5668" stroke="white" stroke-width="0.5" stroke-linecap="round" stroke-linejoin="round"/>
									  <path d="M18.7081 9.92749H4.29194C3.11243 9.92749 2.15625 10.8421 2.15625 11.9703V14.5239C2.15625 15.6522 3.11243 16.5668 4.29194 16.5668H18.7081C19.8876 16.5668 20.8438 15.6522 20.8438 14.5239V11.9703C20.8438 10.8421 19.8876 9.92749 18.7081 9.92749Z" stroke="white" stroke-width="0.5" stroke-linecap="round" stroke-linejoin="round"/>
									  <path d="M16.8393 16.5668C16.8393 16.5668 16.7464 17.2593 16.8393 17.5882C16.9038 17.8165 16.9658 18.2011 17.213 18.2011H18.6012C18.8485 18.2011 18.9104 17.8165 18.975 17.5882C19.0679 17.2595 18.975 16.5668 18.975 16.5668" stroke="white" stroke-width="0.5" stroke-linecap="round" stroke-linejoin="round"/>
									  <path d="M5.0929 14.5239C5.68266 14.5239 6.16077 14.0666 6.16077 13.5025C6.16077 12.9384 5.68266 12.481 5.0929 12.481C4.50313 12.481 4.02502 12.9384 4.02502 13.5025C4.02502 14.0666 4.50313 14.5239 5.0929 14.5239Z" stroke="white" stroke-width="0.5" stroke-linecap="round" stroke-linejoin="round"/>
									  <path d="M4.29199 9.92749L5.52005 5.33105C5.72992 4.54556 6.64772 3.79889 7.4956 3.79889H15.5045C16.3524 3.79889 17.2702 4.54556 17.4801 5.33105L18.7082 9.92749" stroke="white" stroke-width="0.5" stroke-linecap="round" stroke-linejoin="round"/>
									  <path d="M17.9071 14.5239C18.4969 14.5239 18.975 14.0666 18.975 13.5025C18.975 12.9384 18.4969 12.481 17.9071 12.481C17.3173 12.481 16.8392 12.9384 16.8392 13.5025C16.8392 14.0666 17.3173 14.5239 17.9071 14.5239Z" stroke="white" stroke-width="0.5" stroke-linecap="round" stroke-linejoin="round"/>
									</svg>	